<?xml version="1.0" encoding="UTF-8" standalone="no"?>
<!DOCTYPE svg PUBLIC "-//W3C//DTD SVG 1.1//EN" "http://www.w3.org/Graphics/SVG/1.1/DTD/svg11.dtd">
<svg width="100%" height="100%" viewBox="0 0 80 80" version="1.1" xmlns="http://www.w3.org/2000/svg" xmlns:xlink="http://www.w3.org/1999/xlink" xml:space="preserve" style="fill-rule:evenodd;clip-rule:evenodd;stroke-linejoin:round;stroke-miterlimit:1.41421;">
    <g transform="matrix(1.16554,-0.0378774,0.0361569,1.1126,-21.5344,-14.8387)">
        <path d="M41.688,46.031C42.429,47.354 36.031,45.74 46.008,41.333C47.584,40.637 52.693,36.67 52.306,33.989C52.961,38.532 47.306,42.646 47.959,46.154C48.403,48.538 50.84,63.265 51.485,62.054C57.43,50.898 59.389,39.043 60.435,36.127C61.609,32.858 65.334,34.867 71.738,29.646C65.408,34.807 63.177,45.206 53.097,70.804C52.61,72.038 48.904,71.838 48.463,70.805" style="fill:url(#_Linear1);fill-rule:nonzero;"/>
    </g>
    <defs>
        <linearGradient id="_Linear1" x1="0" y1="0" x2="1" y2="0" gradientUnits="userSpaceOnUse" gradientTransform="matrix(1.93928,-36.8051,36.8463,1.93711,71.6977,66.9304)"><stop offset="0%" style="stop-color:rgb(0,137,207);stop-opacity:1"/><stop offset="22%" style="stop-color:rgb(0,162,245);stop-opacity:1"/><stop offset="50%" style="stop-color:rgb(0,169,255);stop-opacity:1"/><stop offset="50%" style="stop-color:rgb(0,169,255);stop-opacity:1"/><stop offset="100%" style="stop-color:rgb(0,169,255);stop-opacity:0.160784"/></linearGradient>
    </defs>
</svg>
