<?xml version="1.0" encoding="UTF-8" standalone="no"?>
<!DOCTYPE svg PUBLIC "-//W3C//DTD SVG 1.1//EN" "http://www.w3.org/Graphics/SVG/1.1/DTD/svg11.dtd">
<svg width="100%" height="100%" viewBox="0 0 80 80" version="1.1" xmlns="http://www.w3.org/2000/svg" xmlns:xlink="http://www.w3.org/1999/xlink" xml:space="preserve" style="fill-rule:evenodd;clip-rule:evenodd;stroke-linejoin:round;stroke-miterlimit:1.41421;">
    <g transform="matrix(1.44771,-0.223372,0.223797,1.45046,-20.5368,-19.6175)">
        <path d="M38.356,22.38C34.673,22.583 31.733,23.171 28.446,25.147C22.134,28.942 20.456,39.519 26.404,44.484C29.051,46.693 33.492,46.647 36.193,44.594C37.837,43.345 38.345,41.545 40.654,41.838C42.293,42.046 42.214,43.484 41.7,44.767C40.843,46.903 37.735,48.952 35.818,49.667C30.423,51.68 24.245,49.893 20.031,46.239C14.939,41.824 15.31,31.816 19.822,27.175C23.384,23.512 28.905,21.755 33.945,22.007C36.862,22.153 38.356,22.38 38.356,22.38" style="fill:url(#_Linear1);fill-rule:nonzero;"/>
    </g>
    <g transform="matrix(1.03131,0,0,1.03247,-3.94255,-1.10329)">
        <path d="M18.417,39.251C19.158,40.574 23.334,42.026 24.546,42.395C31.93,44.641 39.096,45.536 46.008,41.333C47.48,40.439 52.693,36.67 52.306,33.989C52.961,38.532 48.684,41.873 47.959,46.154C47.515,48.775 47.86,51.669 48.864,54.118C49.385,55.389 49.79,57.22 51.119,57.566C52.07,57.814 52.307,55.994 52.797,55.143C53.366,54.155 53.729,53.058 54.289,52.065C55.94,49.137 57.526,46.16 59.425,43.386C62.878,38.344 66.962,33.98 71.698,30.125C62.329,39.698 58.979,51.268 55.378,63.826C54.703,66.178 54.228,68.634 53.097,70.804C52.483,71.98 50.031,71.601 49.433,70.805C44.668,64.456 42.243,56.487 35.853,51.363C30.545,47.107 20.872,46.719 18.417,39.251" style="fill:url(#_Linear2);fill-rule:nonzero;"/>
    </g>
    <defs>
        <linearGradient id="_Linear1" x1="0" y1="0" x2="1" y2="0" gradientUnits="userSpaceOnUse" gradientTransform="matrix(-5.1177,28.6372,-28.6917,-5.10798,43.7535,23.2117)"><stop offset="0%" style="stop-color:rgb(0,169,255);stop-opacity:0.160784"/><stop offset="9%" style="stop-color:rgb(0,169,255);stop-opacity:0.498039"/><stop offset="20%" style="stop-color:rgb(0,169,255);stop-opacity:0.843137"/><stop offset="50%" style="stop-color:rgb(0,169,255);stop-opacity:1"/><stop offset="50%" style="stop-color:rgb(0,169,255);stop-opacity:1"/><stop offset="74%" style="stop-color:rgb(0,161,243);stop-opacity:1"/><stop offset="100%" style="stop-color:rgb(0,137,207);stop-opacity:1"/></linearGradient>
        <linearGradient id="_Linear2" x1="0" y1="0" x2="1" y2="0" gradientUnits="userSpaceOnUse" gradientTransform="matrix(1.93928,-36.8051,36.8463,1.93711,71.6977,66.9304)"><stop offset="0%" style="stop-color:rgb(0,137,207);stop-opacity:1"/><stop offset="22%" style="stop-color:rgb(0,162,245);stop-opacity:1"/><stop offset="50%" style="stop-color:rgb(0,169,255);stop-opacity:1"/><stop offset="50%" style="stop-color:rgb(0,169,255);stop-opacity:1"/><stop offset="80%" style="stop-color:rgb(0,169,255);stop-opacity:0.858824"/><stop offset="90%" style="stop-color:rgb(0,169,255);stop-opacity:0.521569"/><stop offset="100%" style="stop-color:rgb(0,169,255);stop-opacity:0.160784"/></linearGradient>
    </defs>
</svg>
